<?xml version="1.0" standalone="no"?>
<!DOCTYPE svg PUBLIC "-//W3C//DTD SVG 20010904//EN"
 "http://www.w3.org/TR/2001/REC-SVG-20010904/DTD/svg10.dtd">
<svg version="1.0" xmlns="http://www.w3.org/2000/svg"
 width="700.000000pt" height="700.000000pt" viewBox="0 0 700.000000 700.000000"
 preserveAspectRatio="xMidYMid meet">
<metadata>
Created by potrace 1.14, written by Peter Selinger 2001-2017
</metadata>
<g transform="translate(0.000000,700.000000) scale(0.100000,-0.100000)"
fill="#000000" stroke="none">
<path d="M2313 4800 c-73 -3 -135 -9 -138 -12 -3 -3 -113 -290 -244 -639 -131
-349 -244 -647 -250 -663 -6 -16 -10 -30 -8 -32 5 -6 326 12 332 18 3 3 45
112 95 243 49 130 92 240 95 243 7 7 5 -45 -8 -292 -8 -143 -9 -210 -2 -213 6
-2 87 -2 179 -1 l169 3 162 430 c180 479 311 836 320 877 6 24 3 28 -21 34
-15 4 -86 8 -158 8 l-130 1 -99 -265 c-54 -146 -102 -268 -105 -272 -9 -9 -5
80 13 319 8 106 15 199 15 208 0 17 8 16 -217 5z"/>
<path d="M2867 4259 c-114 -305 -225 -605 -247 -666 -39 -110 -39 -113 -19
-123 11 -6 82 -14 158 -17 121 -5 138 -4 144 10 78 205 487 1307 487 1315 0
18 -33 23 -175 29 l-141 6 -207 -554z"/>
<path d="M3446 4792 c-7 -11 -373 -988 -436 -1165 -29 -81 -50 -150 -47 -153
13 -14 97 -23 203 -24 l112 0 45 123 c24 67 64 177 88 244 24 67 46 117 50
110 10 -19 28 -191 35 -339 l7 -138 171 0 c94 0 177 -4 183 -8 8 -5 -17 -17
-65 -31 -210 -62 -1266 -349 -1552 -422 -145 -36 -249 -41 -349 -15 -143 37
-276 138 -333 253 -29 60 -32 75 -36 183 -5 136 9 219 63 379 19 58 33 106 31
108 -2 2 -28 -27 -58 -64 -186 -228 -424 -614 -487 -790 -73 -201 -93 -445
-43 -539 52 -100 213 -232 347 -285 54 -21 75 -24 205 -23 233 2 382 36 655
149 360 150 1073 455 2175 930 1581 682 1580 682 1587 689 4 3 3 9 0 13 -12
11 -192 -32 -792 -191 -319 -85 -595 -157 -614 -161 -34 -7 -34 -7 -28 24 6
27 3 33 -19 41 -14 6 -89 10 -167 10 -78 0 -148 4 -155 9 -11 6 -1 41 45 162
l59 154 137 11 c111 8 143 14 165 31 27 20 77 123 84 173 5 36 -33 50 -164 58
-92 6 -112 10 -110 22 2 8 24 70 49 137 l46 121 157 4 c107 2 162 7 172 16 8
7 26 48 38 93 18 62 20 83 11 92 -9 9 -134 13 -490 15 l-478 3 -137 -170 c-75
-94 -141 -173 -146 -176 -12 -8 -1 28 59 184 28 74 51 140 51 148 0 10 -32 13
-159 13 -88 0 -162 -4 -165 -8z m769 -174 c-96 -271 -369 -988 -375 -988 -20
0 -39 218 -40 459 l0 154 36 41 c84 94 397 417 401 412 3 -2 -7 -37 -22 -78z"/>
</g>
</svg>
